HIERARCHY
ROOT root
{
	OFFSET 0.000000 0.000000 0.000000
	CHANNELS 6 Xposition Yposition Zposition Zrotation Yrotation Xrotation
	JOINT lhip
	{
		OFFSET 0.058581 -0.082280 -0.017664
		CHANNELS 3 Zrotation Yrotation Xrotation
		JOINT lknee
		{
			OFFSET 0.043451 -0.386469 0.008037
			CHANNELS 3 Zrotation Yrotation Xrotation
			JOINT lankle
			{
				OFFSET -0.014790 -0.426874 -0.037428
				CHANNELS 3 Zrotation Yrotation Xrotation
				JOINT ltoe
				{
					OFFSET 0.041054 -0.060286 0.122042
					CHANNELS 3 Zrotation Yrotation Xrotation
					End Site
					{
						OFFSET 0.000000 0.000000 0.000000
					}
				}
			}
		}
	}
	JOINT rhip
	{
		OFFSET -0.060310 -0.090513 -0.013543
		CHANNELS 3 Zrotation Yrotation Xrotation
		JOINT rknee
		{
			OFFSET -0.043257 -0.383688 -0.004843
			CHANNELS 3 Zrotation Yrotation Xrotation
			JOINT rankle
			{
				OFFSET 0.019056 -0.420046 -0.034562
				CHANNELS 3 Zrotation Yrotation Xrotation
				JOINT rtoe
				{
					OFFSET -0.034840 -0.062106 0.130323
					CHANNELS 3 Zrotation Yrotation Xrotation
					End Site
					{
						OFFSET 0.000000 0.000000 0.000000
					}
				}
			}
		}
	}
	JOINT lowerback
	{
		OFFSET 0.004439 0.124404 -0.038385
		CHANNELS 3 Zrotation Yrotation Xrotation
		JOINT upperback
		{
			OFFSET 0.004488 0.137956 0.026820
			CHANNELS 3 Zrotation Yrotation Xrotation
			JOINT chest
			{
				OFFSET -0.002265 0.056032 0.002855
				CHANNELS 3 Zrotation Yrotation Xrotation
				JOINT lowerneck
				{
					OFFSET -0.013390 0.211636 -0.033468
					CHANNELS 3 Zrotation Yrotation Xrotation
					JOINT upperneck
					{
						OFFSET 0.010113 0.088937 0.050410
						CHANNELS 3 Zrotation Yrotation Xrotation
						End Site
						{
							OFFSET 0.000000 0.000000 0.000000
						}
					}
				}
				JOINT lclavicle
				{
					OFFSET 0.071702 0.114000 -0.018898
					CHANNELS 3 Zrotation Yrotation Xrotation
					JOINT lshoulder
					{
						OFFSET 0.122921 0.045205 -0.019046
						CHANNELS 3 Zrotation Yrotation Xrotation
						JOINT lelbow
						{
							OFFSET 0.255332 -0.015649 -0.022946
							CHANNELS 3 Zrotation Yrotation Xrotation
							JOINT lwrist
							{
								OFFSET 0.265709 0.012698 -0.007375
								CHANNELS 3 Zrotation Yrotation Xrotation
								End Site
								{
									OFFSET 0.000000 0.000000 0.000000
								}
							}
						}
					}
				}
				JOINT rclavicle
				{
					OFFSET -0.082954 0.112472 -0.023707
					CHANNELS 3 Zrotation Yrotation Xrotation
					JOINT rshoulder
					{
						OFFSET -0.113228 0.046853 -0.008472
						CHANNELS 3 Zrotation Yrotation Xrotation
						JOINT relbow
						{
							OFFSET -0.260127 -0.014369 -0.031269
							CHANNELS 3 Zrotation Yrotation Xrotation
							JOINT rwrist
							{
								OFFSET -0.269108 0.006794 -0.006027
								CHANNELS 3 Zrotation Yrotation Xrotation
								End Site
								{
									OFFSET 0.000000 0.000000 0.000000
								}
							}
						}
					}
				}
			}
		}
	}
}
MOTION
Frames: 16
Frame Time: 0.033333
-0.429504 0.181264 0.967099 -96.360848 2.586983 79.763237 2.997236 -5.559534 -6.204618 -3.166598 -17.376171 11.377875 1.646461 5.759348 -9.324420 0.000000 -0.000000 0.000000 4.230859 -1.477119 12.258107 1.989911 5.940499 18.491566 -0.591684 -5.915845 -21.053025 0.000000 -0.000000 0.000000 -3.202370 4.697623 4.600063 3.020811 -4.258464 7.604157 0.192452 -0.506878 6.806106 8.749230 8.868917 14.747654 6.457328 2.406641 10.954806 -22.522502 4.144429 2.238195 -66.287593 -3.921546 11.391305 11.441370 -17.868035 6.721511 1.310491 0.293630 -15.584064 20.396628 -6.130257 -0.316832 63.991258 -0.513998 12.118865 -21.867462 34.484265 -3.274431 4.283135 3.283799 -17.649782 
-0.450644 0.177063 0.967735 -96.475926 2.288285 80.212548 2.135576 -6.023339 -5.874951 -3.603154 -17.165294 12.728597 2.588764 6.634085 -10.749906 0.000000 -0.000000 0.000000 3.855441 -1.179300 11.804270 1.885090 5.956172 21.369336 0.233758 -6.509308 -20.299067 0.000000 -0.000000 0.000000 -3.913836 4.657263 4.014355 2.941412 -4.269147 7.068866 0.196119 -0.490681 7.082950 8.885804 8.296449 14.611669 6.678743 2.223515 10.481086 -22.257257 4.177039 2.002267 -66.157904 -4.653381 11.755253 11.261826 -17.859702 6.824737 1.924750 0.347548 -15.665636 20.581325 -6.382440 -0.365035 64.307476 -1.106502 12.094429 -20.868784 31.224664 -3.012388 4.404398 2.570564 -17.064504 
-0.469590 0.173174 0.970088 -97.042695 1.959882 80.849216 1.668961 -5.953680 -5.016726 -3.974089 -16.573534 12.376411 3.214947 7.026605 -11.591966 0.000000 -0.000000 0.000000 3.470663 -0.623116 9.568408 1.637489 5.403356 26.224414 0.817564 -6.271102 -19.535512 0.000000 -0.000000 0.000000 -4.587813 4.724103 3.390232 2.970595 -3.748400 6.957290 0.035123 -0.570467 7.048014 9.096900 8.005496 13.698821 7.229089 1.458483 10.250859 -21.992690 3.977446 1.852604 -66.041472 -5.477329 12.161960 11.686781 -18.416583 6.184310 1.329259 0.320017 -15.632840 20.930689 -6.581861 -0.313328 64.983423 -1.809676 11.977875 -20.634063 27.941573 -2.875151 6.201286 2.002250 -16.280893 
-0.481998 0.170380 0.972110 -97.696913 1.642019 81.490386 1.276477 -5.736531 -4.125413 -3.974406 -16.270055 11.033503 3.870514 7.417380 -11.790911 0.000000 -0.000000 0.000000 2.941346 -0.035327 6.722545 1.840193 4.577576 31.526419 1.807038 -6.009726 -17.771010 0.000000 -0.000000 0.000000 -5.253408 4.476738 3.060629 2.988712 -3.227037 6.702878 0.082396 -0.582970 7.035667 9.263551 8.100719 13.456539 7.173028 1.932661 9.442050 -21.810704 3.963415 1.535482 -65.850441 -6.089399 12.578460 11.598283 -19.023329 5.586815 1.587486 0.201271 -15.551474 20.958105 -6.669313 -0.313377 65.359966 -2.111695 12.308597 -20.047895 25.610183 -2.761794 6.897271 1.783145 -15.406112 
-0.497055 0.166828 0.974061 -98.496167 1.432882 82.159154 1.023618 -5.094473 -2.819328 -3.994423 -16.064926 9.033130 4.537117 7.711031 -11.920126 0.000000 -0.000000 0.000000 2.154802 0.193847 2.509310 1.882404 2.730088 38.813383 2.577363 -5.858985 -14.449767 0.000000 -0.000000 0.000000 -5.736980 3.685716 3.135380 2.809250 -2.813973 6.188510 0.093872 -0.548904 6.823411 8.732367 7.922148 12.704247 7.485666 2.417932 8.180524 -21.637501 3.960731 1.652631 -65.216408 -6.664856 12.747083 11.422179 -20.880608 5.281223 2.410051 -0.266567 -16.116253 20.933749 -6.509498 0.027520 65.670529 -2.531604 12.433483 -19.105518 24.002530 -2.201098 6.873273 1.845134 -14.120222 
-0.510003 0.163960 0.974901 -99.178621 1.285901 82.789755 0.952935 -4.504233 -1.673881 -4.106381 -15.898486 7.096648 5.001123 7.894738 -12.074700 0.000000 -0.000000 0.000000 1.419366 0.040877 -1.889346 0.691643 0.126016 45.244238 3.070409 -7.699335 -12.271653 0.000000 -0.000000 0.000000 -6.131856 2.755655 3.796522 2.600819 -2.531104 5.366522 0.108871 -0.698850 6.735774 8.250564 7.963335 11.595260 7.732060 2.819452 7.802200 -21.528967 4.071057 1.734010 -64.330247 -7.273293 12.653087 11.060709 -22.985321 4.622363 3.070317 -0.846971 -16.485381 21.086200 -6.593897 -0.013872 65.648432 -3.434240 12.881045 -18.519550 23.905832 -1.798897 8.058063 1.660599 -12.946897 
-0.521120 0.162274 0.975977 -99.704185 1.264974 82.811320 0.917389 -3.580377 -0.130399 -4.014950 -16.010778 5.428224 4.919341 7.760595 -12.364044 0.000000 -0.000000 0.000000 1.044596 -0.367542 -4.960760 -1.859176 -3.171674 48.788850 2.401041 -11.934694 -13.861491 0.000000 -0.000000 0.000000 -6.388550 1.814893 5.052962 2.297722 -2.453712 4.993064 0.185982 -0.990099 6.685350 7.838415 8.239779 10.278798 7.762156 2.999738 6.741303 -21.513354 3.711105 1.941017 -63.078182 -7.983971 12.283582 11.041872 -25.330959 5.040644 2.992871 -1.062210 -16.949711 21.383328 -6.329094 -0.070436 65.658785 -4.136799 13.097316 -18.431835 24.729900 -1.626005 8.720660 1.842810 -12.405219 
-0.532894 0.161178 0.977964 -100.663813 1.629401 82.957466 1.312707 -2.446029 1.730170 -3.531350 -16.064155 3.167508 4.415358 7.468323 -12.317041 0.000000 -0.000000 0.000000 1.336880 -0.457471 -7.805515 -3.350464 -5.551481 49.342579 2.070839 -13.802730 -15.745180 0.000000 -0.000000 0.000000 -6.227739 0.927100 5.913825 2.087984 -2.650230 5.227033 0.207413 -1.332497 6.594216 7.423324 9.234997 9.074203 7.891841 3.487969 5.531847 -21.239157 2.574356 1.964037 -62.018101 -9.114412 12.033155 10.909715 -25.911316 4.774509 4.814489 -1.829543 -16.653404 21.329792 -5.958590 -0.143941 66.201974 -4.312811 13.156753 -18.577323 25.475118 -1.827204 7.625275 2.585951 -12.599797 
-0.540675 0.160493 0.979569 -101.472752 2.034624 83.353802 1.770849 -1.569724 2.487238 -3.321691 -15.986480 2.003253 4.083886 7.237155 -12.326630 0.000000 -0.000000 0.000000 1.918163 -0.320375 -9.777043 -2.965681 -6.942664 47.192563 1.862174 -13.981460 -17.726331 0.000000 -0.000000 0.000000 -6.076207 0.286196 6.426442 2.179591 -2.882062 5.099732 0.231456 -1.739842 6.734110 7.334852 9.110445 8.902254 7.436857 2.554345 5.574302 -20.786794 2.174909 1.704700 -61.626905 -10.140720 11.971660 11.170145 -26.530350 4.307140 4.773477 -1.566469 -15.562867 21.236561 -5.891497 -0.120456 66.280673 -4.546977 13.240610 -18.844429 27.169835 -2.118355 7.483943 2.462193 -12.918389 
-0.547681 0.160364 0.981007 -102.160617 2.456494 83.464819 2.186880 -0.996802 3.385762 -3.075247 -15.723619 1.048688 3.738437 7.135824 -12.512549 0.000000 -0.000000 0.000000 2.651263 0.019705 -10.485895 -2.332852 -8.707305 42.865679 1.607281 -14.316628 -19.770598 0.000000 -0.000000 0.000000 -6.074205 -0.599353 7.169331 2.161873 -3.424333 5.202384 0.547560 -1.669489 6.412682 7.104344 9.248942 8.662410 7.687004 2.212053 4.768995 -20.217445 1.655736 1.815950 -61.576237 -10.851336 11.703699 11.531054 -26.680822 4.099215 5.081383 -1.909879 -15.539130 20.624034 -5.641231 0.183228 66.801823 -4.547548 12.963196 -18.982755 28.732736 -1.783234 7.263370 2.845318 -13.600908 
-0.554463 0.160813 0.981622 -102.983059 2.762484 83.873687 2.459691 -0.642760 3.659870 -2.930370 -15.242344 0.764586 3.616014 7.109521 -12.888011 0.000000 -0.000000 0.000000 3.311854 -0.771602 -10.550991 -2.276051 -10.756985 36.751017 1.282392 -14.922655 -21.030728 0.000000 -0.000000 0.000000 -5.968080 -0.685104 7.660708 2.118660 -3.913534 4.603212 0.890924 -2.054127 6.128847 6.528712 9.126234 9.923378 8.131132 2.157828 5.108366 -19.684881 1.058670 2.483951 -61.494851 -11.632377 11.205928 11.684344 -27.001818 3.200417 5.046278 -1.646095 -16.294605 20.141006 -5.406290 0.880470 66.955926 -4.736083 12.679193 -19.020956 30.213366 -1.293280 6.547711 2.933937 -13.952239 
-0.561462 0.161664 0.982050 -103.792741 2.994921 84.055609 2.795128 -0.025409 3.936915 -3.062044 -14.882763 0.938901 3.541210 6.906137 -13.385388 0.000000 -0.000000 0.000000 3.909857 -2.011242 -9.412499 -1.728734 -12.412893 30.320166 1.003757 -15.108873 -20.591697 0.000000 -0.000000 0.000000 -5.891747 -0.784999 8.182012 2.132115 -4.416307 4.185506 1.191315 -2.211551 6.078754 6.400623 8.537738 10.418077 8.326385 1.726055 5.128424 -19.300990 0.689182 2.559233 -61.369059 -12.228604 10.939474 11.229974 -26.945843 3.596360 5.500051 -1.846376 -16.182110 19.575369 -5.404497 1.291525 67.102317 -4.762338 12.402533 -18.781072 31.668362 -0.588758 5.943120 3.012983 -14.131171 
-0.567662 0.163110 0.981551 -105.255854 2.809386 84.570443 2.802917 0.346430 3.958586 -3.315726 -13.791000 0.980233 3.792360 6.849996 -13.837906 0.000000 -0.000000 0.000000 4.073869 -2.943083 -8.196348 -0.326957 -12.827661 23.764851 1.134860 -14.750805 -19.231214 0.000000 -0.000000 0.000000 -5.858860 -0.216675 7.688076 2.082216 -4.666234 3.989780 1.177394 -2.530344 5.983770 6.163674 7.577347 10.993896 8.504319 1.156040 4.843967 -18.987303 0.083019 2.966649 -60.859232 -12.846949 10.868104 10.685792 -26.579955 4.092419 4.746701 -1.855439 -16.041268 19.259559 -5.355194 1.447736 67.386216 -4.691372 12.297613 -18.938186 32.062920 -0.459629 5.972598 2.986141 -13.940943 
-0.573701 0.165432 0.980117 -107.134127 2.450374 85.079990 2.727652 0.765375 4.196518 -3.644188 -12.606079 0.644619 4.192702 7.138890 -14.134699 0.000000 -0.000000 0.000000 4.085607 -3.578595 -7.041686 0.648509 -12.303213 19.345238 -0.320002 -13.982564 -17.295179 0.000000 -0.000000 0.000000 -5.901030 0.278486 6.846037 1.950114 -4.691052 4.172575 1.057291 -2.595501 5.881421 6.035218 7.253027 10.541883 8.277050 1.008595 4.367389 -18.963264 -0.245266 2.814743 -60.476863 -12.871087 10.893885 10.594903 -26.601851 4.986299 4.261811 -1.799996 -15.050522 19.158910 -5.291149 1.538384 67.523879 -4.554336 12.343232 -19.018377 32.347541 -0.504999 5.621143 3.081419 -14.151889 
-0.579822 0.168280 0.979598 -109.610576 1.944991 84.993807 2.338868 1.409786 5.343022 -3.598160 -11.447706 0.026990 4.470406 7.674495 -14.364424 0.000000 -0.000000 0.000000 3.666800 -3.912443 -5.379917 0.906132 -11.260634 17.270546 -0.580058 -12.832178 -15.544869 0.000000 -0.000000 0.000000 -5.902501 0.735475 6.491478 1.610038 -4.529647 4.403312 0.861284 -2.156657 5.639422 5.826567 7.297282 10.990622 8.258183 1.113267 4.664558 -18.696132 -0.371017 2.452062 -60.522873 -12.841181 10.964358 10.379032 -26.053716 5.578228 3.634497 -1.841282 -14.638732 19.226736 -5.397421 1.157476 67.570455 -4.498866 12.328462 -18.972037 32.125560 -0.245462 6.316255 3.032777 -14.064667 
-0.584834 0.170982 0.980031 -112.089307 2.101267 85.226779 2.444748 1.914256 5.489359 -3.435961 -10.464313 0.493112 4.612135 8.453647 -14.868037 0.000000 -0.000000 0.000000 3.791870 -3.561400 -5.069528 1.352479 -9.809120 16.766002 -0.161101 -11.413495 -14.910842 0.000000 -0.000000 0.000000 -5.278087 0.690078 5.864414 1.624107 -4.131989 4.420235 0.620572 -1.993810 5.733183 5.782371 6.078086 10.795520 7.802401 0.227216 5.027347 -19.376782 0.268982 1.982439 -60.755710 -12.930046 11.076505 10.714188 -25.493048 5.180647 3.988808 -1.939095 -14.158578 19.405519 -5.338920 0.957853 67.093261 -3.811236 12.581633 -18.808281 31.601199 -0.339154 5.679785 3.055224 -13.816602 
